<?xml version="1.0" standalone="no"?><!DOCTYPE svg PUBLIC "-//W3C//DTD SVG 1.1//EN" "http://www.w3.org/Graphics/SVG/1.1/DTD/svg11.dtd"><svg t="1583921225816" class="icon" viewBox="0 0 1024 1024" version="1.1" xmlns="http://www.w3.org/2000/svg" p-id="838" xmlns:xlink="http://www.w3.org/1999/xlink" width="200" height="200"><defs><style type="text/css"></style></defs><path d="M944.921991 329.157193c-23.683261-55.929962-57.535607-106.240167-100.754214-149.32497-43.084803-43.084803-93.395008-77.070953-149.32497-100.754214-57.803214-24.486084-119.486737-36.929831-182.775905-36.929832-63.422971 0-124.97269 12.443748-182.775905 36.929832-55.929962 23.683261-106.240167 57.535607-149.324971 100.754214-43.084803 43.084803-77.070953 93.395008-100.754214 149.32497-24.486084 57.803214-36.929831 119.486737-36.929831 182.775905s12.443748 124.97269 36.929831 182.775905c23.683261 55.929962 57.535607 106.240167 100.754214 149.324971 43.084803 43.084803 93.395008 77.070953 149.324971 100.754214 57.803214 24.486084 119.486737 36.929831 182.775905 36.929831 63.422971 0 124.97269-12.443748 182.775905-36.929831 55.929962-23.683261 106.240167-57.535607 149.32497-100.754214 43.084803-43.084803 77.070953-93.395008 100.754214-149.324971 24.486084-57.803214 36.929831-119.486737 36.929832-182.775905 0.133804-63.289168-12.443748-124.705083-36.929832-182.775905zM512.200706 944.654384C273.628642 944.654384 79.613224 750.638965 79.613224 512.066902s194.015419-432.587482 432.587482-432.587482 432.587482 194.015419 432.587482 432.587482S750.638965 944.654384 512.200706 944.654384zM163.909578 669.420097c0 8.96485 4.816935 17.126878 12.443747 21.542401 7.760617 4.415523 17.260682 4.415523 24.887496 0 7.760617-4.415523 12.443748-12.711355 12.443747-21.542401 0-8.96485-4.816935-17.126878-12.443747-21.542402-7.760617-4.415523-17.260682-4.415523-24.887496 0-7.760617 4.28172-12.443748 12.577551-12.443747 21.542402z m214.085979-475.939893c-1.204234 0.535215-2.007056 0.936626 0 0z m43.084804-60.613093c-76.26813 17.795897-146.515092 59.944074-197.62812 119.21913-51.782046 59.944074-83.493532 133.803737-92.859794 212.34653-5.352149 44.824252-2.14086 90.451326 8.028225 134.338953 2.676075 11.373318 16.45786 19.133934 27.429766 15.521233 11.908533-3.880308 18.331112-15.253626 15.521233-27.429766-2.274664-9.633869-4.014112-19.401542-5.619757-29.303019l-0.401411-2.542271c-0.267607-2.007056-0.535215-4.014112-0.669019-6.021168-0.535215-4.816935-0.936626-9.633869-1.204233-14.584607-1.338037-18.598719-1.204234-37.465046 0.267607-56.063766 0.267607-4.28172 0.669019-8.563439 1.204234-12.845159l0.401411-3.612701c0.267607-2.14086 0.535215-4.147916 0.936626-6.288775 1.338037-8.96485 3.21129-17.929701 5.35215-26.894551 4.147916-17.662093 9.633869-35.056579 16.324056-51.782047 0.802822-2.007056 1.739449-3.880308 2.408467-5.887364-2.676075 6.823991 0 0 0.669019-1.605645 1.873252-4.147916 3.746505-8.429635 5.887364-12.443747 4.014112-8.295832 8.429635-16.45786 12.978963-24.218477 4.549327-7.626813 9.098654-14.986019 14.049392-22.077616 2.542271-3.612701 5.084542-7.091598 7.626813-10.704299 0.936626-1.338037 6.154972-7.760617 1.338037-2.007056l4.683131-5.887365c11.239514-13.781785 23.28185-26.760747 36.260813-38.66928 6.556383-6.021168 13.514177-11.774729 20.471972-17.394486 0.535215-0.401411 0.936626-0.802822 1.605644-1.204233l5.084542-3.746505c3.880308-2.809878 7.89442-5.619757 11.908533-8.295832 16.993075-11.239514 35.056579-21.007187 53.655299-29.169214l2.943682-1.204234c-0.802822 0.401411-1.338037 0.669019-1.873252 0.802822 0.669019-0.267607 1.605645-0.669019 2.007056-0.802822 2.408467-0.936626 4.816935-2.007056 7.225401-2.809879 4.950738-1.873252 9.767673-3.612701 14.718412-5.218345 10.169084-3.345093 20.605776-6.288776 31.042467-8.697243 11.373318-2.676075 19.133934-16.190252 15.521233-27.429766-3.612701-11.640925-15.119822-18.331112-27.295962-15.38743z m114.669802 367.826473V150.529204c0-13.915589-11.239514-25.021299-25.021299-25.021299-13.915589 0-25.021299 11.239514-25.021298 25.021299v358.594016c-0.401411 6.957794 2.007056 14.183196 7.225401 19.535345l159.761663 159.761662c4.950738 4.950738 11.373318 7.225402 17.795897 7.225402 6.422579 0 12.845159-2.408467 17.795897-7.225402 9.767673-9.767673 9.767673-25.690318 0-35.45799l-152.536261-152.268653z m0 0" fill="#cdcdcd" p-id="839"></path></svg>