<?xml version="1.0" standalone="no"?><!DOCTYPE svg PUBLIC "-//W3C//DTD SVG 1.1//EN" "http://www.w3.org/Graphics/SVG/1.1/DTD/svg11.dtd"><svg t="1584170166678" class="icon" viewBox="0 0 1024 1024" version="1.1" xmlns="http://www.w3.org/2000/svg" p-id="2202" xmlns:xlink="http://www.w3.org/1999/xlink" width="200" height="200"><defs><style type="text/css"></style></defs><path d="M512 0C230.4 0 0 230.4 0 512s230.4 512 512 512 512-230.4 512-512S793.6 0 512 0z m0 953.6C272 953.6 73.6 755.2 73.6 512S272 73.6 512 73.6 950.4 272 950.4 512 752 953.6 512 953.6z" fill="#cdcdcd" p-id="2203"></path><path d="M758.4 268.8c-16-16-35.2-16-51.2 0l-195.2 192-195.2-192c-16-16-35.2-16-51.2 0s-16 35.2 0 51.2l195.2 195.2-195.2 195.2c-16 16-16 35.2 0 51.2 9.6 3.2 16 6.4 25.6 6.4 9.6 0 19.2-3.2 25.6-9.6l195.2-195.2 195.2 195.2c6.4 6.4 19.2 9.6 25.6 9.6 6.4 0 19.2-3.2 25.6-9.6 16-16 16-35.2 0-51.2L563.2 512l195.2-195.2c12.8-12.8 12.8-35.2 0-48z" fill="#cdcdcd" p-id="2204"></path></svg>