<?xml version="1.0" standalone="no"?><!DOCTYPE svg PUBLIC "-//W3C//DTD SVG 1.1//EN" "http://www.w3.org/Graphics/SVG/1.1/DTD/svg11.dtd"><svg t="1588303233244" class="icon" viewBox="0 0 1024 1024" version="1.1" xmlns="http://www.w3.org/2000/svg" p-id="3104" xmlns:xlink="http://www.w3.org/1999/xlink" width="200" height="200"><defs><style type="text/css"></style></defs><path d="M832 0H192C86.4 0 0 86.4 0 192v448c0 105.6 86.4 192 192 192h193.6l88 171.2c9.6 14.4 24 20.8 38.4 20.8 14.4 0 30.4-6.4 40-20.8L638.4 832H832c105.6 0 192-86.4 192-192V192c0-105.6-86.4-192-192-192z m144 640c0 80-64 144-144 144H608l-12.8 27.2-81.6 163.2-84.8-163.2L416 784H192c-80 0-144-64-144-144V192c0-80 64-144 144-144h640c80 0 144 64 144 144v448z" fill="#6F6F6F" p-id="3105"></path><path d="M201.6 408m-40 0a40 40 0 1 0 80 0 40 40 0 1 0-80 0Z" fill="#6F6F6F" p-id="3106"></path><path d="M521.6 408m-40 0a40 40 0 1 0 80 0 40 40 0 1 0-80 0Z" fill="#6F6F6F" p-id="3107"></path><path d="M825.6 408m-40 0a40 40 0 1 0 80 0 40 40 0 1 0-80 0Z" fill="#6F6F6F" p-id="3108"></path></svg>