<?xml version="1.0" standalone="no"?><!DOCTYPE svg PUBLIC "-//W3C//DTD SVG 1.1//EN" "http://www.w3.org/Graphics/SVG/1.1/DTD/svg11.dtd"><svg t="1584610760881" class="icon" viewBox="0 0 1024 1024" version="1.1" xmlns="http://www.w3.org/2000/svg" p-id="1351" xmlns:xlink="http://www.w3.org/1999/xlink" width="200" height="200"><defs><style type="text/css"></style></defs><path d="M268.5 355.6h19.4v602.1h-19.4z" fill="#8a8a8a" p-id="1352"></path><path d="M511.3 103.1c28.9 0 77.8 16.4 78.1 77.9 0.2 48 0 73.2-0.2 95.4l-0.1 20.8-0.2 39.1h252.7c19.1 0 35.7 7 46.6 19.8 11.2 13.2 15.4 31.1 12.1 51.8-9.6 60.5-52.3 399.4-57.9 443.8-13.5 35.1-50.8 67.4-78.5 67.4l-595.3-0.2c-25.3 0-45.8-20.5-45.8-45.6V426.4c0-25.2 14.6-51.3 38.9-51.3H301.8l8.9-5.1c59.8-34.1 105.4-101.8 122.1-181.2 16.6-79.3 45.4-85.7 78.5-85.7m0-38.9c-58.4 0-97.7 26.7-116.6 116.6-13.3 63.5-50.2 125.1-103.3 155.4H161.7c-46.8 0-77.8 43.5-77.8 90.2v446.8c0 46.7 37.9 84.5 84.7 84.5l595.3 0.2c46.8 0 99.3-46.4 116.6-97.1 0 0 48.2-383.3 58.3-446.8 10.8-68.1-36-116.6-97.1-116.6H627.9c0.2-29.4 0.6-53.1 0.3-116.6-0.2-76.5-58.4-116.6-116.9-116.6z" fill="#8a8a8a" p-id="1353"></path></svg>