<?xml version="1.0" standalone="no"?><!DOCTYPE svg PUBLIC "-//W3C//DTD SVG 1.1//EN" "http://www.w3.org/Graphics/SVG/1.1/DTD/svg11.dtd"><svg t="1588303419207" class="icon" viewBox="0 0 1024 1024" version="1.1" xmlns="http://www.w3.org/2000/svg" p-id="6077" xmlns:xlink="http://www.w3.org/1999/xlink" width="200" height="200"><defs><style type="text/css"></style></defs><path d="M512 512m-512 0a512 512 0 1 0 1024 0 512 512 0 1 0-1024 0Z" fill="#FFFFFF" opacity=".782" p-id="6078"></path><path d="M497.777778 422.883556a29.866667 29.866667 0 0 1 35.100444-2.474667l2.901334 2.076444 185.400888 149.646223a21.333333 21.333333 0 0 1-24.177777 34.986666l-2.616889-1.792-177.208889-143.018666-169.187556 142.734222a21.333333 21.333333 0 0 1-27.875555-0.284445l-2.190222-2.275555a21.333333 21.333333 0 0 1 0.284444-27.847111l2.275556-2.218667 177.265777-149.532444z" fill="#101010" p-id="6079"></path></svg>