<?xml version="1.0" standalone="no"?><!DOCTYPE svg PUBLIC "-//W3C//DTD SVG 1.1//EN" "http://www.w3.org/Graphics/SVG/1.1/DTD/svg11.dtd"><svg t="1583997378764" class="icon" viewBox="0 0 1024 1024" version="1.1" xmlns="http://www.w3.org/2000/svg" p-id="31890" xmlns:xlink="http://www.w3.org/1999/xlink" width="200" height="200"><defs><style type="text/css"></style></defs><path d="M266.24 711.68c0-165.12 31.744-358.912 160.256-422.144 45.568-22.528 193.28 278.528 246.528 278.528 80.384 0 115.456-394.24 175.872-346.112 92.416 73.728 152.064 354.304 152.064 489.472-280.832 4.352-431.36 12.8-734.72 0.256z m0 0" fill="#CFCFCF" p-id="31891"></path><path d="M73.216 192h865.024c41.728 0 62.464 20.736 62.464 62.464v568.064c0 41.728-20.736 62.464-62.464 62.464H73.216c-41.728 0-62.464-20.736-62.464-62.464V254.464C10.752 212.736 31.744 192 73.216 192z m0 0" fill="#D0D0D0" p-id="31892"></path><path d="M95.488 266.24h820.736c6.912 0 10.496 3.584 10.496 10.496v523.776c0 6.912-3.584 10.496-10.496 10.496H95.488c-6.912 0-10.496-3.584-10.496-10.496V276.736c0-7.168 3.584-10.496 10.496-10.496z m0 0" fill="#F2F2F2" p-id="31893"></path><path d="M347.904 373.248l134.656 205.568c6.144 9.472 18.688 12.288 28.416 6.4l132.864-81.664c9.472-5.888 21.76-3.072 28.16 5.888l133.376 194.56c4.352 6.4 4.864 14.592 1.28 21.504s-10.752 11.008-18.432 11.008H190.976c-6.912 0-13.568-3.328-17.408-9.216s-4.608-13.312-1.792-19.712l139.776-331.008c3.072-7.168 9.728-12.032 17.408-12.544 7.168-0.768 14.592 2.816 18.944 9.216z m0 0M679.168 414.72c0 26.624 14.08 50.944 37.12 64.256 23.04 13.312 51.2 13.312 74.24 0s37.12-37.888 37.12-64.256c0-26.624-14.08-50.944-37.12-64.256-23.04-13.312-51.2-13.312-74.24 0s-37.12 37.632-37.12 64.256z m0 0" fill="#CCCCCC" p-id="31894"></path></svg>