<?xml version="1.0" standalone="no"?><!DOCTYPE svg PUBLIC "-//W3C//DTD SVG 1.1//EN" "http://www.w3.org/Graphics/SVG/1.1/DTD/svg11.dtd"><svg t="1583988005619" class="icon" viewBox="0 0 1024 1024" version="1.1" xmlns="http://www.w3.org/2000/svg" p-id="21993" xmlns:xlink="http://www.w3.org/1999/xlink" width="200" height="200"><defs><style type="text/css"></style></defs><path d="M512 512m-512 0a512 512 0 1 0 1024 0 512 512 0 1 0-1024 0Z" fill="#00a100" p-id="21994"></path><path d="M373.015762 590.010508c-90.563923 0-164.091068-73.527145-164.091068-164.091068s73.527145-164.091068 164.091068-164.091069 164.091068 73.527145 164.091068 164.091069-73.527145 164.091068-164.091068 164.091068z m0-289.625219c-69.043783 0-125.534151 56.490368-125.534151 125.534151s56.490368 125.534151 125.534151 125.53415 125.534151-56.490368 125.53415-125.53415-56.490368-125.534151-125.53415-125.534151zM477.029772 659.950963H268.105079c-10.76007 0-18.830123-8.966725-18.830123-18.830122s8.966725-18.830123 18.830123-18.830123h208.924693c10.76007 0 18.830123 8.966725 18.830123 18.830123s-8.070053 18.830123-18.830123 18.830122z" fill="#FFFFFF" p-id="21995"></path><path d="M373.015762 782.795096c-10.76007 0-18.830123-8.966725-18.830123-18.830122V571.180385c0-10.76007 8.966725-18.830123 18.830123-18.830122s18.830123 8.966725 18.830122 18.830122v192.784589c0 10.76007-8.070053 18.830123-18.830122 18.830122zM650.984238 782.795096c-90.563923 0-164.091068-73.527145-164.091068-164.091068s73.527145-164.091068 164.091068-164.091068S815.075306 529.036778 815.075306 618.704028s-73.527145 164.091068-164.091068 164.091068z m0-289.625219c-69.043783 0-125.534151 56.490368-125.53415 125.534151s56.490368 125.534151 125.53415 125.534151 125.534151-56.490368 125.534151-125.534151-56.490368-125.534151-125.534151-125.534151z" fill="#FFFFFF" p-id="21996"></path><path d="M650.984238 493.169877c-10.76007 0-18.830123-8.966725-18.830122-18.830122V280.658494c0-10.76007 8.966725-18.830123 18.830122-18.830123s18.830123 8.966725 18.830123 18.830123v192.784588c0 11.656743-8.070053 19.726795-18.830123 19.726795z" fill="#FFFFFF" p-id="21997"></path><path d="M753.204904 355.978984c-3.58669 0-8.070053-0.896673-11.656743-3.58669l-90.563923-69.043783-89.66725 69.043783c-8.070053 6.276708-20.623468 4.483363-26.900175-3.58669-6.276708-8.070053-4.483363-20.623468 3.58669-26.900175l101.323993-77.113835c7.17338-5.380035 16.140105-5.380035 23.313485 0l102.220665 77.113835c8.070053 6.276708 9.863398 17.93345 3.58669 26.900175-3.58669 4.483363-9.863398 7.17338-15.243432 7.17338z" fill="#FFFFFF" p-id="21998"></path></svg>